<svg version="1" xmlns="http://www.w3.org/2000/svg" width="2048" height="2048" viewBox="0 0 1536.000000 1536.000000"><path d="M268 307.7c-29.1 2.9-59.2 16.4-80.4 36.3-19.8 18.6-32 39.4-39 66.5-3.3 12.6-4.1 19.8-4 35.5.6 63.4 44.6 117.7 106.5 131.5 11 2.4 12.1 2.5 26.4 2.9 26.4.7 51.1-5.6 74.1-19.1 5.2-3.1 9.7-5.3 10-5.1.2.3-.3 2.2-1.1 4.2l-1.6 3.7 8.8 4c4.9 2.3 14.4 6.7 21.3 9.9s15.9 7.3 20 9.3c4.1 1.9 10 4.6 13 6 5.6 2.5 26.6 12.2 42.7 19.7 31.8 14.8 51.3 24.5 51 25.3-.1.5-2.3 2-4.7 3.4-2.5 1.4-7.4 4.2-11 6.2-3.6 2.1-7.2 4.1-8 4.5-5.4 2.3-28.5 16.7-28.8 17.8-.1.7.7 2.8 1.8 4.6l2 3.3 4.3-2.4c24.1-13.8 57-31.7 58.2-31.7 1.6 0 17.6 7.1 50.5 22.3 39.6 18.3 39.4 18.2 59.9 27.3 7.9 3.5 15.4 6.7 16.6 7 2.4.6 3.3-.4 5.5-6 1-2.8.6-3.1-24-14.3-14.7-6.8-74.7-34.6-83.7-38.9-5.7-2.7-10.3-5.2-10.3-5.5 0-.7 13.6-8.8 42.5-25.3 22.2-12.7 21.1-11.8 19.5-15.5-2.1-5.3-2.9-5.3-11.5-.4-4.4 2.5-10.7 6-14 7.8-3.3 1.8-15.6 8.7-27.3 15.3l-21.4 12-3.6-1.3c-4.8-1.7-34.8-14.9-48.5-21.4-5.9-2.8-10.9-5.1-11.1-5.1-.2 0-5.5-2.4-11.7-5.4-6.3-2.9-29.8-13.8-52.3-24.2l-40.8-18.8 3.3-2.9c26.2-22.7 41.2-47.6 48-80 1.7-8 2.2-13.7 2.2-26.2 0-21.8-2.8-36-11.1-55.5-17.6-41.9-59.4-73.8-105.2-80.5-5.2-.7-27.8-1.3-33-.8z"/><path d="M581 308c-10.5 1.2-14.7 2-23.7 4.6-35 10.1-63.9 32.9-81.8 64.4-7.2 12.6-14.6 35.5-16.3 50-2.3 20.2.3 43.9 6.9 62.7 16.1 46.1 56.6 80.4 104.9 88.9 10.2 1.8 30.4 2.4 41.1 1.2 14.6-1.7 37.2-9 49.9-16.3 22.9-13 43.8-34.9 55.3-58 19-38.2 19-84.9 0-123-12-23.9-33.4-45.9-57.3-58.8-13.9-7.5-30.6-13.1-45-15.2-7.1-1-26.9-1.3-34-.5zM885.1 308.6c-37.6 5.4-70 24.6-92.8 55.2-25.9 34.7-33 83.7-18.2 125.9 14.4 41 49.3 73.7 91.8 85.8 16.4 4.7 39.9 6.3 57.6 3.9 20.9-2.8 46.4-13.2 63.1-25.8 8.3-6.2 24.4-22.4 29.8-30.1 28.4-39.7 33.1-92.5 12.2-138-9.8-21.3-29.3-43.3-50.2-56.7-12.7-8.2-31.2-15.5-47.7-18.9-12.5-2.6-32.3-3.2-45.6-1.3zM1196 308.1c-43.4 5-81 29.3-103.1 66.6-8.7 14.8-15.9 36.4-17.7 53.3-7.6 69.3 35.8 131.9 103.3 148.9 14.3 3.6 37.1 4.7 52.5 2.6 4.9-.7 18.2-4.2 27-7.1 17.5-5.8 34.2-16.5 49.1-31.3 11.9-12 17.4-19.4 24.7-33.1 10.7-20.1 15.5-40.3 15.5-65 0-17.4-2-29.3-7.4-44.7-16.5-46.8-57.7-81.3-106.9-89.4-8.2-1.4-28.4-1.8-37-.8z"/><path d="M1097.5 567.6c-32.2 14.3-71.3 31.8-78 34.9-2.7 1.3-16.2 7.3-30 13.5-13.7 6.1-28.5 12.7-32.7 14.6l-7.7 3.5-43.7-25.6c-24-14.1-44.2-25.4-44.8-25.2-.6.3-2.1 2.3-3.4 4.5l-2.2 4 19.2 11.5c10.6 6.3 28.9 17 40.5 23.8 11.7 6.8 21 12.6 20.5 13-.5.5-41.3 18.8-99.7 44.9-19.6 8.7-27.1 12.2-27.7 12.8-.9.9 2.8 9.2 4.2 9.2 1 0 9.3-3.3 17.5-7 2.2-1 9.4-4.2 16-7 6.6-2.9 14.3-6.2 17-7.5 2.8-1.2 8.4-3.7 12.5-5.5 4.1-1.8 10-4.4 13-5.7 3-1.4 15.4-6.9 27.5-12.3s24.4-10.9 27.3-12.3l5.4-2.5 6.6 3.6c3.7 2 15.4 8.7 26.1 14.9 10.7 6.3 19.9 11.2 20.5 11 .6-.3 2.1-2.3 3.4-4.5l2.3-4.1-19.3-11.5c-10.6-6.3-20.6-12.4-22.2-13.5l-2.9-1.9 4.1-2.1c4-2.1 80.8-36.6 84.7-38.1 1.1-.4 4.9-2.1 8.5-3.8 9.1-4.1 48.9-21.8 58.3-25.8 6-2.6 7.5-3 6.8-1.6-.8 1.4-11.1 14.6-17.4 22.2-.6.8-7.5 9.4-15.2 19-7.7 9.6-14.2 17.7-14.5 18-.3.3-6.2 7.5-13 16s-16.8 20.9-22.2 27.4l-9.8 12 3.3 2.7c1.7 1.6 3.7 2.8 4.2 2.8.6 0 4.5-4.4 8.7-9.7 4.2-5.3 13-16.3 19.5-24.3s17.2-21.3 23.8-29.5c6.6-8.2 12.6-15.5 13.3-16.2.7-.8 2.5-3 4-5s3.7-4.8 4.9-6.2c1.2-1.4 6.7-8.1 12.2-15l10-12.5-3.9-3.5c-2.1-1.9-5-5.4-6.4-7.8-1.5-2.3-2.7-4.2-2.9-4.2-.1.1-11.9 5.3-26.2 11.6zM357.1 575l-3.4 2.9 3.4 5c10.8 15.9 79.3 108.1 80.2 108.1.7-.1 2.5-1.1 4.1-2.5l2.9-2.3-1.8-2.9c-4-6.2-81.4-111.4-81.9-111.3 0 .1-1.6 1.4-3.5 3zM813.2 625.2c-15.9 26.6-29.4 49.4-30.1 50.7-1.2 2.1-1 2.6 1.5 4.7 1.6 1.3 3.4 2.3 4.1 2.4 1 0 59-95.6 60.8-100.2.4-1.1-.5-2.3-2.8-3.7-1.9-1.1-3.7-2.1-4-2.1-.4 0-13.6 21.7-29.5 48.2zM613.8 586.1c-1.6 1.1-2.8 2.5-2.8 3.1 0 .6 1.9 3.8 4.2 7.2 8.5 12.4 60.9 83.6 61.6 83.6.4 0 2.2-1.2 4-2.8l3.2-2.7-11.3-15.5c-6.1-8.6-19.7-27.2-30.2-41.4-10.4-14.1-20.1-27.4-21.5-29.3-3.1-4.5-3.8-4.7-7.2-2.2zM489.2 678.1c-8.1 1-17.6 4.1-27.2 8.9-22.6 11.3-39 30.5-47.7 55.7-2.4 7.2-2.7 9.3-2.9 26.3-.3 21.3.7 27 7.5 41.6 11.4 24.2 31.5 41.8 57.6 50.4 12.9 4.3 40.2 4.2 53.3-.1 29.4-9.7 51.3-31.2 61.4-60.6 3.4-10 4.8-25.4 3.7-40.3-1.5-19.5-10.1-37.8-25.4-53.9-11.1-11.7-23.1-19.3-38.7-24.5-10-3.3-29.4-5-41.6-3.5zM719.7 678.7c-18.3 3.1-35.9 12.3-49.8 26.2-24 24-32.8 56.8-24.4 90.4 9.2 36.6 44.2 66.3 80.8 68.6 26.4 1.6 42.7-2.4 62.1-15.3 17.5-11.7 29.8-28.2 37.1-49.8l3.5-10.3-.3-19-.3-19-3.7-9.9c-4.8-13.1-11.5-24.1-20.6-33.8-12.4-13.2-30.9-23.8-47.9-27.3-9.2-1.9-27.6-2.3-36.5-.8z"/><path d="M962 678.3c-3.6.4-10.9 2.3-16.3 4.1-28.3 9.7-51 33.2-59.6 62.1-5.7 18.9-4.7 42 2.5 60.3 11.5 29.2 37.3 51.1 68.4 58.3 5.7 1.3 32.4 1.3 38.7-.1 15.8-3.4 33.2-13.1 45.8-25.5 12.7-12.5 20.4-25.6 25.8-44.1 2.2-7.4 2.3-35.8.2-43.9-9.3-35.3-37.6-63.1-71.4-70-8.2-1.7-25.4-2.3-34.1-1.2z"/><path d="M810.6 851.1c-1.1 2.7-1.4 4.5-.8 5.1 1.3 1.3 30.5 13.4 77.9 32.4 21.6 8.7 39 16.1 38.8 16.4-.3.4-13.3 8.7-29 18.5-15.7 9.7-28.5 18.2-28.5 18.9 0 .6 1.2 2.8 2.6 4.9l2.5 3.8 3.7-2.2c2-1.3 15.6-9.7 30.2-18.7 14.6-9.1 28-17.4 29.7-18.4l3.3-2 85.7 34.2c47.2 18.8 87.6 35 89.8 36 2.2.9 6.1 2.5 8.8 3.5 5.2 2 5.9 3.5 2.5 5.8-3.7 2.3-17 15.6-23 22.8-14.4 17.2-26 44.1-29.2 67.9-1.7 12-1.2 32.9.9 44 9.2 47.4 40.7 86.1 84 102.9 18.7 7.3 33.8 10 53 9.6 18.6-.4 37.7-4.5 52.1-11.1 2.9-1.3 5.5-2.4 5.8-2.4.2 0 3.3-1.7 6.8-3.7 21.5-12.7 40.4-31.8 52.6-53.4 6.6-11.7 13.2-31.7 15.7-47.4 2.3-14.7 1-38.2-3.1-53.8-7.5-29.1-23.3-53.7-47-73.3-33.3-27.6-80.1-37-122.9-24.9-11.4 3.3-24 8.7-33.1 14.2-3.9 2.4-7.4 4.3-7.7 4.3-.3 0 .1-2.1 1-4.6.9-2.6 1.2-4.9.7-5.4-.5-.4-33.1-13.6-72.4-29.3-93.6-37.4-101.2-40.5-103.2-41.7-1-.5-2.5-1-3.3-1-3.2 0-1-1.8 12-10 7.5-4.7 14.6-9.2 15.9-10 1.3-.8 4.9-3 8-4.8 3.1-1.9 5.6-3.9 5.6-4.5 0-1.7-5-8.8-5.8-8.4-.4.3-10.6 6.5-22.7 13.9-29 17.8-27.8 17.2-32.3 15.7-4.5-1.4-33.9-13-84.2-33-20.7-8.2-38.1-14.9-38.7-14.9-.6 0-1.8 1.9-2.7 4.1zM649.5 849c-1.1.5-7.6 3.2-14.5 6s-14.3 5.9-16.5 6.9c-2.2 1-23.2 10-46.7 20.1l-42.6 18.3-30.8-18.3c-16.9-10.1-31.6-18.5-32.8-18.7-1.7-.4-2.7.5-4.4 3.6l-2.2 4 12.2 7.6c6.8 4.2 19 11.8 27.3 16.9 8.2 5.1 15 9.7 15.2 10.3.2.5-24.5 11.7-54.9 24.8-100.5 43.3-93.3 40-93 42.1.2 1 .8 3.2 1.4 4.7 1 2.5 1.5 2.8 4.1 2.3 2.6-.5 31.4-12.3 56.2-22.9 53.9-23.1 92.9-39.7 96.7-41.1l4.7-1.8 9.3 5.3c5.1 2.9 20.1 11.8 33.3 19.6 13.2 7.9 24.7 14.3 25.5 14.3.9 0 2.6-1.8 3.8-3.9l2.2-3.9-7.7-5c-4.3-2.7-12.2-7.6-17.6-10.8-5.3-3.2-11-6.7-12.5-7.6-1.5-1-3.4-2.1-4.2-2.5-4.2-2.1-18-10.9-18-11.4s5.2-2.9 30.8-14.1c2.4-1 22.2-9.6 44-18.9 21.8-9.4 40.1-17.4 40.5-17.8.4-.5.1-2.7-.9-5-1.7-4.3-3.6-5-7.9-3.1zM650.8 884.7c-24.3 40.9-38.8 65.9-38.8 67.1 0 .5 1.6 1.7 3.5 2.8 3.1 1.7 3.7 1.7 4.6.4 8-12.4 57.9-97.3 57.9-98.7 0-1-5.2-4.3-6.8-4.3-.5 0-9.7 14.7-20.4 32.7z"/><path d="M1035.5 855l-2.8 2.9 6.6 6.8c3.6 3.7 8.4 8.8 10.7 11.3 2.3 2.5 11.1 11.7 19.5 20.5s17.2 18 19.5 20.5c2.3 2.5 11.5 12.1 20.5 21.5 8.9 9.3 19.1 20.1 22.5 23.8l6.4 6.8 3.4-3.6 3.5-3.6-8.9-9.1c-4.9-5.1-9.8-10.2-10.9-11.3-1.1-1.2-9-9.5-17.5-18.5-8.5-8.9-17-17.9-18.9-19.9-1.9-2-10.9-11.5-20.1-21.1-9.2-9.6-19.4-20.3-22.6-23.8-3.3-3.4-6.4-6.2-7-6.2-.6 0-2.3 1.3-3.9 3zM434.5 860.2c-2.8 2.9-10.1 11.1-16 18.3-6 7.1-12.5 15-14.6 17.5-2.1 2.5-15.7 18.9-30.3 36.5l-26.4 32 3.1 2.7c1.7 1.6 3.5 2.8 4.1 2.7.6 0 9.7-10.4 20.3-23.2 17.4-21.1 61.3-74.2 68.4-82.7 3.4-4.1 3.5-5.1 1.1-7.3-2.8-2.6-4-2.1-9.7 3.5zM789.8 860.1c-3.3 2.4-3.5 4.5-1 7.3 1 1.2 9.4 12.4 18.5 25.1 21.6 29.7 46.1 63.2 49.1 66.9l2.4 3 3.6-2.8 3.7-2.7-3.4-4.7c-1.9-2.6-8.9-12.4-15.7-21.7-6.8-9.4-14.9-20.4-18-24.7-16.7-23.2-35.2-47.8-35.8-47.8-.4 0-1.9 1-3.4 2.1zM270.8 961.5c-.2.1-3.4.5-7.2.9-21.8 2-50.6 14.2-67.4 28.4-27.1 22.8-42.3 48-49.3 81.7-3.1 15.3-3.1 38.5 0 53.3 6 28.3 17.7 50.6 36.6 69.6 11 11.1 18 16.6 29 22.9 14.7 8.5 34.8 15.4 50.8 17.4 12.3 1.6 32.5.8 44.1-1.6 28.8-6 50.1-17.6 71.2-38.9 18.8-18.9 30.6-41.2 36.5-69.2 3.1-14.9 3.2-38.1.1-53.2-6.8-33.2-23.6-61.3-48.7-81.3-2.7-2.2-5.2-4.2-5.5-4.5-1.4-1.5-12.4-8.2-18.6-11.3-8.7-4.4-25.3-10-35.9-12.1-6.5-1.3-34.7-3-35.7-2.1zM577.5 962.2c-22.2 2.6-51.4 15-67.5 28.6-23.6 20.2-38.3 42.4-46.3 70.2-3.8 13-5.1 23.1-5 39.5 0 21 3.9 38.7 12.4 57 2.9 6.5 11.5 21.3 12.8 22.5.3.3 1.9 2.2 3.4 4.3 7.1 9.4 24.6 25.3 35.1 31.7 23.5 14.3 48.1 21 75.1 20.5 41.3-.9 76.5-18.1 104.1-51 15.1-18 26.3-44.7 29.2-70 1.1-9.1.7-28-.7-37.4-7.5-50.5-43.8-93.9-91.3-109.5-5.8-1.9-14.5-4.2-19.3-5.1-9.8-1.9-31.4-2.5-42-1.3zM887.6 962.1c-20.9 2.2-48.5 13.1-65.5 26-9.8 7.4-26.4 24.7-32.4 33.7-10.1 15.4-18 35-21.4 53.2-2.5 13.9-2.3 37.3.6 50.7 4.2 20.1 13.3 40.8 24.2 55.3 7.4 9.8 25.3 27 33.8 32.5 42.9 27.7 94.5 30.7 139.6 8.3 12.5-6.3 21.1-12.4 32.3-23.2 12.7-12.2 20.2-22.1 26.9-35.2 10.7-20.8 15.4-39.7 15.7-61.9.2-20.1-1.8-32.4-7.9-49.5-17-47.3-61.2-83.2-110.5-89.6-7.7-.9-27.1-1.1-35.4-.3z"/></svg>